# xmcd
#
# Track frame offsets: 
#        150
#        24526
#        47106
#        71107
#        105003
#
# Disc length: 1818 seconds
#
# Revision: 0
# Processed by: cddbd v1.5PL3 Copyright (c) Steve Scherf et al.
# Submitted via: ExactAudioCopy v0.90b4
#
DISCID=38071805
DTITLE=The Unexplained Bakin' - TUB
DYEAR=2004
DGENRE=Blues
TTITLE0=Pina Colada
TTITLE1=Boy In A Bubble
TTITLE2=Tickle
TTITLE3=Mr. Peas
TTITLE4=Get Back
EXTD=TUB- Justin May - Guitar - Vocals,\nJohn Danielson - Drums,\nAndr
EXTD=ew Walling - Bass - vocals\n\nAll tracks recorded live by Jeff El
EXTD=liott at Severely Underground Studio on 12/07/03 and 12/08/03.\nM
EXTD=ixing done by John and Andrew.  Art work by Andrew.\n
EXTT0=A.W.
EXTT1=A.W.
EXTT2=J.M.
EXTT3=A.W.
EXTT4=T.U.B.
PLAYORDER=
